<svg width="1027" height="316" viewBox="0 0 1027 316" fill="none" xmlns="http://www.w3.org/2000/svg">
<path d="M742.511 77.338C728.971 63.498 707.971 56.488 680.121 56.488C652.271 56.488 631.661 63.448 617.901 77.188C599.481 95.578 600.721 119.208 600.781 120.138V181.478H603.171V120.078C603.151 119.848 601.941 96.388 619.661 78.718C632.951 65.468 653.291 58.748 680.121 58.748C706.951 58.748 727.661 65.508 740.731 78.848C758.021 96.488 756.241 119.818 756.221 120.138V181.478H758.611V120.238C758.691 119.248 760.511 95.728 742.511 77.348V77.338Z" fill="#D6A63A" style="fill:#D6A63A;fill:color(display-p3 0.8392 0.6510 0.2275);fill-opacity:1;"/>
<path d="M1022 44.388V39.628C1022 38.598 1021.53 37.668 1020.64 36.948C1015.85 33.088 998.021 35.588 996.011 35.878C967.741 39.838 943.331 52.178 943.101 52.298C943.041 52.328 936.781 55.418 932.651 55.418C928.521 55.418 922.261 52.328 922.211 52.298C922.111 52.248 918.961 50.668 913.571 48.488L913.631 48.408C913.541 48.358 911.601 47.258 908.171 45.548V45.528C908.041 45.468 907.901 45.408 907.771 45.348C894.931 39.038 862.711 25.158 827.701 25.158C804.461 25.158 791.731 28.088 781.501 30.448C775.241 31.888 770.301 33.028 764.601 33.108C758.951 33.218 750.581 30.168 739.941 26.358C719.821 19.148 692.281 9.26801 656.281 9.26801C637.601 9.26801 625.101 11.298 615.061 12.928C608.551 13.988 602.941 14.898 597.501 14.898C592.061 14.898 581.301 12.508 569.011 9.74801C551.611 5.82801 529.951 0.958008 513.531 0.958008V3.20801C529.671 3.20801 551.181 8.04801 568.461 11.938C580.901 14.738 591.641 17.158 597.511 17.158C603.381 17.158 608.871 16.228 615.481 15.158C625.431 13.538 637.811 11.528 656.291 11.528C691.841 11.528 719.151 21.318 739.091 28.468C749.971 32.368 758.601 35.378 764.641 35.368C770.611 35.288 775.921 34.068 782.071 32.648C792.181 30.318 804.751 27.418 827.701 27.418C843.741 27.418 859.191 30.378 872.401 34.178C858.481 31.348 843.541 29.918 827.701 29.918C809.351 29.918 796.351 32.968 785.911 35.418C778.201 37.228 771.551 38.788 764.621 38.788C757.691 38.788 749.081 35.718 737.871 31.838C718.371 25.078 691.661 15.828 656.291 15.828C641.071 15.828 629.291 17.998 618.901 19.918C611.021 21.368 604.211 22.628 597.501 22.628C590.791 22.628 579.261 19.938 565.761 16.828C548.201 12.778 528.291 8.18801 513.531 8.18801V10.438C528.001 10.438 547.761 14.998 565.191 19.018C578.841 22.168 590.631 24.888 597.501 24.888C604.371 24.888 611.351 23.618 619.361 22.138C629.641 20.248 641.301 18.098 656.291 18.098C691.231 18.098 717.711 27.268 737.041 33.968C748.481 37.928 757.511 41.058 764.621 41.058C771.731 41.058 778.631 39.468 786.491 37.618C797.341 35.078 809.641 32.188 827.701 32.188C828.431 32.188 829.161 32.188 829.881 32.188C812.241 33.508 797.251 37.128 785.721 39.908C776.781 42.058 769.721 43.768 764.621 43.768C758.081 43.768 749.281 40.818 738.151 37.088C718.571 30.518 691.751 21.528 656.291 21.528C644.001 21.528 632.351 23.828 622.081 25.848C613.291 27.578 604.981 29.218 597.511 29.218C590.041 29.218 577.091 26.368 563.421 23.348C546.561 19.618 527.451 15.398 513.541 15.398V17.648C527.171 17.648 546.141 21.838 562.871 25.538C576.681 28.588 589.721 31.468 597.511 31.468C605.301 31.468 613.661 29.808 622.581 28.048C633.231 25.948 644.251 23.768 656.291 23.768C691.341 23.768 717.931 32.688 737.351 39.198C748.701 42.998 757.671 46.008 764.621 46.008C770.021 46.008 777.211 44.278 786.311 42.078C807.041 37.078 835.421 30.228 870.941 36.188C874.431 36.878 877.861 37.658 881.221 38.528C871.231 36.378 860.091 34.848 848.561 34.848C831.211 33.808 808.681 39.228 790.571 43.578C779.441 46.258 769.831 48.568 764.631 48.568C758.131 48.568 750.291 45.908 740.361 42.538C722.341 36.418 697.651 28.048 660.291 28.048C648.131 28.048 636.141 30.358 624.541 32.598C614.731 34.488 605.461 36.278 597.521 36.278C589.581 36.278 577.001 33.448 563.301 30.458C546.491 26.778 527.431 22.618 513.551 22.618V24.868C527.161 24.868 546.071 29.008 562.761 32.658C576.601 35.678 589.671 38.538 597.521 38.538C605.371 38.538 615.081 36.728 625.021 34.808C636.501 32.598 648.371 30.308 660.291 30.308C697.231 30.308 721.691 38.608 739.551 44.668C749.701 48.118 757.721 50.828 764.631 50.828C770.121 50.828 779.871 48.488 791.161 45.778C792.681 45.418 794.221 45.038 795.791 44.668C784.121 48.608 776.431 52.248 776.261 52.328C776.201 52.358 769.961 55.448 765.051 55.448C762.081 55.448 755.911 53.168 753.811 52.308C753.511 52.178 730.931 42.298 705.811 37.468V37.448C670.461 29.208 645.041 34.938 624.621 39.538C614.531 41.808 605.811 43.778 597.521 43.778C590.361 43.778 579.221 41.208 566.321 38.228C549.291 34.298 530.001 29.838 513.541 29.838V32.088C529.711 32.088 548.851 36.508 565.741 40.418C578.791 43.438 590.061 46.038 597.511 46.038C606.081 46.038 614.921 44.048 625.161 41.738C637.341 38.998 651.321 35.848 668.141 35.568C636.651 38.798 608.371 52.178 608.061 52.328C607.991 52.358 601.451 55.458 597.511 55.458C593.571 55.458 587.201 52.368 587.121 52.328C586.761 52.158 550.321 34.868 513.531 34.868C476.741 34.868 440.311 52.158 439.931 52.338C439.871 52.368 433.581 55.458 429.561 55.458C425.541 55.458 419.081 52.358 419.011 52.328C418.691 52.178 390.411 38.788 358.921 35.568C375.741 35.848 389.721 38.998 401.901 41.738C412.141 44.048 420.981 46.038 429.551 46.038C436.991 46.038 448.271 43.438 461.321 40.418C478.211 36.518 497.361 32.088 513.531 32.088V29.838C497.071 29.838 477.771 34.298 460.751 38.228C447.851 41.208 436.711 43.778 429.551 43.778C421.261 43.778 412.551 41.818 402.461 39.538C382.041 34.938 356.631 29.218 321.261 37.448V37.468C296.141 42.298 273.571 52.168 273.291 52.298C271.161 53.178 264.991 55.458 262.021 55.458C257.121 55.458 250.871 52.368 250.791 52.328C250.621 52.248 242.941 48.608 231.281 44.678C232.851 45.058 234.391 45.428 235.911 45.788C247.191 48.498 256.941 50.838 262.431 50.838C269.351 50.838 277.371 48.118 287.521 44.678C305.381 38.618 329.841 30.318 366.781 30.318C378.701 30.318 390.571 32.608 402.051 34.818C411.981 36.738 421.371 38.548 429.551 38.548C437.731 38.548 450.481 35.688 464.311 32.668C481.001 29.018 499.911 24.878 513.521 24.878V22.628C499.631 22.628 480.581 26.798 463.771 30.468C450.071 33.468 437.131 36.288 429.551 36.288C421.971 36.288 412.341 34.498 402.531 32.608C390.941 30.368 378.951 28.058 366.781 28.058C329.421 28.058 304.731 36.438 286.711 42.548C276.781 45.918 268.941 48.578 262.441 48.578C257.251 48.578 247.641 46.268 236.511 43.588C218.401 39.238 195.871 33.808 178.521 34.858C166.991 34.858 155.851 36.388 145.861 38.538C149.221 37.668 152.651 36.888 156.131 36.198C191.651 30.248 220.031 37.098 240.751 42.088C249.851 44.278 257.041 46.018 262.441 46.018C269.401 46.018 278.361 43.008 289.711 39.208C309.131 32.698 335.731 23.778 370.771 23.778C382.821 23.778 393.831 25.948 404.491 28.058C413.411 29.818 421.831 31.478 429.551 31.478C437.271 31.478 450.381 28.598 464.191 25.548C480.931 21.848 499.901 17.658 513.531 17.658V15.408C499.621 15.408 480.511 19.628 463.651 23.358C449.981 26.378 437.071 29.228 429.561 29.228C422.051 29.228 413.781 27.588 404.991 25.858C394.721 23.828 383.081 21.538 370.781 21.538C335.321 21.538 308.501 30.528 288.921 37.098C277.791 40.828 268.991 43.778 262.451 43.778C257.351 43.778 250.291 42.078 241.361 39.918C229.821 37.138 214.841 33.518 197.201 32.198C197.931 32.198 198.651 32.198 199.381 32.198C217.441 32.198 229.741 35.088 240.591 37.628C248.451 39.468 255.241 41.068 262.461 41.068C269.681 41.068 278.601 37.938 290.041 33.978C309.371 27.278 335.851 18.108 370.791 18.108C385.781 18.108 397.431 20.258 407.711 22.148C415.721 23.628 422.631 24.898 429.571 24.898C436.511 24.898 448.231 22.178 461.881 19.028C479.311 15.008 499.071 10.448 513.541 10.448V8.19801C498.781 8.19801 478.871 12.788 461.311 16.838C447.811 19.948 436.141 22.638 429.561 22.638C422.981 22.638 416.041 21.378 408.161 19.928C397.771 18.008 386.001 15.838 370.781 15.838C335.421 15.838 308.711 25.088 289.201 31.848C277.981 35.728 269.121 38.798 262.441 38.798C255.761 38.798 248.861 37.238 241.151 35.428C230.711 32.978 217.711 29.928 199.361 29.928C183.511 29.928 168.581 31.358 154.651 34.188C167.871 30.398 183.321 27.428 199.361 27.428C222.311 27.428 234.881 30.328 244.991 32.658C251.141 34.078 256.451 35.298 262.421 35.378C268.421 35.428 277.091 32.378 287.971 28.478C307.911 21.328 335.221 11.538 370.771 11.538C389.251 11.538 401.631 13.548 411.581 15.168C418.191 16.248 423.911 17.168 429.551 17.168C435.191 17.168 446.161 14.748 458.601 11.948C475.881 8.05801 497.381 3.21801 513.531 3.21801V0.968006C497.101 0.968006 475.451 5.83801 458.051 9.75801C445.761 12.528 435.141 14.908 429.561 14.908C423.981 14.908 418.501 13.998 412.001 12.938C401.961 11.308 389.471 9.27801 370.781 9.27801C334.791 9.27801 307.241 19.158 287.131 26.368C276.491 30.188 268.151 33.258 262.471 33.118C256.771 33.038 251.831 31.908 245.571 30.458C235.341 28.098 222.611 25.168 199.371 25.168C164.351 25.168 132.121 39.058 119.291 45.368L118.891 45.548V45.568C115.461 47.268 113.521 48.378 113.431 48.428L113.491 48.508C108.101 50.688 104.961 52.268 104.871 52.318C104.811 52.348 98.4309 55.438 94.4109 55.438C90.3909 55.438 84.0209 52.348 83.9709 52.328C83.7309 52.198 59.3209 39.858 31.0609 35.898C29.0509 35.598 11.2109 33.098 6.42088 36.958C5.53088 37.678 5.06088 38.598 5.06088 39.638V44.318C5.05088 44.548 4.93088 46.608 6.23088 48.018C6.89088 48.738 7.82088 49.158 8.91088 49.228L12.8809 49.478C39.0809 50.198 59.2609 57.618 72.8509 71.528C92.8609 91.998 91.5309 119.818 91.5109 120.158V181.498H93.9009V120.218C93.9209 119.928 95.3209 91.208 74.6209 70.028C60.5709 55.648 39.8209 47.978 12.9809 47.238L9.06088 46.988C7.33088 46.878 7.42088 44.728 7.44088 44.408V39.648C7.44088 39.398 7.50088 39.058 7.97088 38.678C10.9509 36.268 23.4809 37.068 30.7009 38.128C58.5409 42.028 82.5909 54.188 82.8409 54.308C83.1209 54.448 89.6809 57.698 94.4109 57.698C99.1409 57.698 105.691 54.458 105.991 54.308C106.331 54.138 140.351 37.108 178.561 37.108C213.361 37.108 249.361 54.148 249.701 54.308C249.981 54.448 256.531 57.698 262.031 57.698C266.111 57.698 273.931 54.488 274.291 54.338C274.681 54.168 313.691 37.108 345.861 37.108C381.561 37.108 417.571 54.148 417.941 54.318C418.231 54.458 425.071 57.698 429.571 57.698C434.071 57.698 440.781 54.458 441.041 54.318C441.401 54.148 477.341 37.108 513.551 37.108C549.761 37.108 585.691 54.148 586.031 54.318C586.311 54.458 592.901 57.698 597.521 57.698C602.141 57.698 608.861 54.458 609.151 54.318C609.511 54.148 645.511 37.108 681.231 37.108C713.401 37.108 752.411 54.168 752.821 54.348C753.151 54.488 760.971 57.698 765.051 57.698C770.561 57.698 777.111 54.448 777.371 54.318C777.731 54.148 813.711 37.108 848.531 37.108C886.741 37.108 920.761 54.138 921.121 54.318C921.401 54.458 928.081 57.698 932.681 57.698C937.281 57.698 943.971 54.448 944.261 54.308C944.501 54.188 968.551 42.028 996.401 38.128C1003.6 37.068 1016.14 36.278 1019.12 38.678C1019.59 39.058 1019.65 39.398 1019.65 39.648V44.488C1019.67 44.728 1019.76 46.878 1018.03 46.988L1014.15 47.238C987.271 47.978 966.521 55.648 952.471 70.028C931.781 91.208 933.181 119.928 933.191 120.158V181.498H935.581V120.098C935.561 119.818 934.231 91.998 954.241 71.528C967.831 57.628 988.011 50.208 1014.26 49.478L1018.19 49.228C1019.28 49.158 1020.21 48.738 1020.87 48.018C1022.17 46.618 1022.05 44.548 1022.03 44.408L1022 44.388Z" fill="#D6A63A" style="fill:#D6A63A;fill:color(display-p3 0.8392 0.6510 0.2275);fill-opacity:1;"/>
<path d="M180.701 56.488C152.841 56.488 131.851 63.498 118.301 77.338C100.301 95.718 102.121 119.238 102.201 120.138V181.478H104.591V120.048C104.571 119.818 102.791 96.488 120.081 78.848C133.151 65.508 153.551 58.748 180.701 58.748C207.851 58.748 227.861 65.468 241.161 78.718C258.881 96.388 257.671 119.848 257.651 120.148V181.488H260.041V120.218C260.101 119.218 261.351 95.598 242.921 77.198C229.161 63.468 208.231 56.498 180.701 56.498V56.488Z" fill="#D6A63A" style="fill:#D6A63A;fill:color(display-p3 0.8392 0.6510 0.2275);fill-opacity:1;"/>
<path d="M575.591 77.178C561.911 63.448 541.031 56.488 513.511 56.488C485.991 56.488 465.111 63.448 451.431 77.178C433.101 95.578 434.491 119.208 434.561 120.138V181.478H436.951V120.068C436.931 119.838 435.581 96.368 453.201 78.698C466.411 65.458 486.701 58.738 513.511 58.738C540.321 58.738 560.611 65.448 573.821 78.698C591.441 96.368 590.081 119.828 590.061 120.138V181.478H592.451V120.218C592.521 119.218 593.911 95.588 575.581 77.188L575.591 77.178Z" fill="#D6A63A" style="fill:#D6A63A;fill:color(display-p3 0.8392 0.6510 0.2275);fill-opacity:1;"/>
<path d="M409.121 77.188C395.361 63.458 374.431 56.488 346.911 56.488C319.391 56.488 298.061 63.498 284.511 77.338C266.521 95.728 268.331 119.238 268.411 120.138V181.478H270.801V120.048C270.781 119.818 269.001 96.488 286.291 78.848C299.361 65.508 319.761 58.748 346.911 58.748C374.061 58.748 394.071 65.468 407.361 78.718C425.081 96.388 423.871 119.848 423.851 120.148V181.488H426.241V120.218C426.301 119.218 427.551 95.588 409.121 77.198V77.188Z" fill="#D6A63A" style="fill:#D6A63A;fill:color(display-p3 0.8392 0.6510 0.2275);fill-opacity:1;"/>
<path d="M908.711 77.338C895.171 63.498 874.171 56.488 846.311 56.488C818.451 56.488 797.851 63.448 784.091 77.188C765.671 95.578 766.911 119.208 766.971 120.138V181.478H769.361V120.078C769.341 119.848 768.101 96.428 785.831 78.738C799.121 65.468 819.471 58.748 846.311 58.748C873.151 58.748 893.851 65.508 906.921 78.848C924.211 96.488 922.431 119.818 922.411 120.138V181.478H924.801V120.238C924.881 119.248 926.701 95.728 908.701 77.348L908.711 77.338Z" fill="#D6A63A" style="fill:#D6A63A;fill:color(display-p3 0.8392 0.6510 0.2275);fill-opacity:1;"/>
<path d="M46.1481 248.498H29.9481V295.998H17.0481V248.498H0.848145V237.798H46.1481V248.498Z" fill="black" style="fill:black;fill-opacity:1;"/>
<path d="M85.8482 278.798H59.3482C59.7482 284.798 63.4482 287.798 70.5482 287.798C77.6482 287.798 78.9482 286.698 82.3482 284.598V293.798C78.5482 295.898 73.7482 296.898 67.6482 296.898C61.5482 296.898 55.9482 294.998 52.3482 291.298C48.7482 287.598 46.9482 282.398 46.9482 275.798C46.9482 269.198 48.9482 263.498 52.8482 259.398C56.7482 255.398 61.5482 253.398 67.3482 253.398C73.1482 253.398 77.8482 255.198 81.1482 258.798C84.3482 262.398 86.0482 267.298 86.0482 273.398V278.798H85.8482ZM74.2482 270.998C74.2482 265.098 71.8482 262.098 67.1482 262.098C62.4482 262.098 63.3482 262.998 61.9482 264.698C60.4482 266.398 59.5482 268.498 59.2482 271.098H74.2482V270.998Z" fill="black" style="fill:black;fill-opacity:1;"/>
<path d="M128.248 294.398C125.448 296.098 121.348 296.898 115.948 296.898C110.548 296.898 104.648 294.998 100.748 291.098C96.8482 287.198 94.9482 282.298 94.9482 276.098C94.9482 269.898 97.0482 263.498 101.148 259.398C105.248 255.298 110.848 253.298 117.748 253.298C124.648 253.298 126.048 253.898 128.148 255.198V266.098C125.548 264.098 122.648 263.098 119.348 263.098C116.048 263.098 112.848 264.198 110.748 266.298C108.648 268.398 107.548 271.398 107.548 275.198C107.548 278.998 108.548 281.798 110.548 283.898C112.548 285.998 115.348 286.998 118.848 286.998C122.348 286.998 125.048 285.998 128.048 283.998V294.298L128.248 294.398Z" fill="black" style="fill:black;fill-opacity:1;"/>
<path d="M179.548 295.898H167.048V272.298C167.048 266.198 164.848 263.198 160.548 263.198C156.248 263.198 156.548 264.098 155.148 265.798C153.748 267.498 153.048 269.698 153.048 272.298V295.998H140.448V234.498H153.048V260.598H153.248C156.348 255.798 160.448 253.398 165.748 253.398C174.948 253.398 179.548 259.098 179.548 270.398V295.898Z" fill="black" style="fill:black;fill-opacity:1;"/>
<path d="M212.948 296.998C206.148 296.998 200.848 295.098 196.948 291.198C193.048 287.298 191.148 282.098 191.148 275.398C191.148 268.698 193.148 263.198 197.148 259.298C201.148 255.398 206.648 253.498 213.448 253.498C220.248 253.498 225.448 255.398 229.348 259.298C233.148 263.198 235.148 268.298 235.148 274.698C235.148 281.098 233.148 286.998 229.248 290.998C225.248 294.998 219.848 296.998 212.948 296.998ZM213.248 263.198C210.248 263.198 207.948 264.198 206.348 266.298C204.748 268.398 203.848 271.298 203.848 275.098C203.848 283.098 207.048 287.098 213.348 287.098C219.648 287.098 222.348 282.998 222.348 274.798C222.348 266.598 219.348 263.198 213.248 263.198Z" fill="black" style="fill:black;fill-opacity:1;"/>
<path d="M283.548 295.898H276.948V237.798H283.548V295.898Z" fill="black" style="fill:black;fill-opacity:1;"/>
<path d="M332.548 295.898H326.148V272.198C326.148 263.398 323.048 258.998 316.748 258.998C310.448 258.998 310.848 260.198 308.748 262.798C306.648 265.298 305.548 268.498 305.548 272.298V295.998H299.148V254.498H305.548V261.398H305.748C308.748 256.198 313.148 253.498 318.948 253.498C324.748 253.498 326.748 254.998 329.048 257.898C331.348 260.798 332.548 265.098 332.548 270.598V295.998V295.898Z" fill="black" style="fill:black;fill-opacity:1;"/>
<path d="M365.048 295.498C363.548 296.398 361.548 296.798 359.048 296.798C351.948 296.798 348.448 292.698 348.448 284.598V259.998H341.548V254.298H348.448V244.198L354.848 242.098V254.398H364.948V260.098H354.848V283.498C354.848 286.298 355.348 288.298 356.248 289.498C357.148 290.698 358.648 291.298 360.848 291.298C363.048 291.298 363.848 290.798 365.048 289.898V295.598V295.498Z" fill="black" style="fill:black;fill-opacity:1;"/>
<path d="M406.948 276.898H378.548C378.648 281.498 379.848 285.098 382.148 287.598C384.448 290.098 387.648 291.398 391.648 291.398C395.648 291.398 400.348 289.898 404.148 286.798V292.998C400.648 295.598 395.948 296.998 390.148 296.998C384.348 296.998 379.948 295.098 376.748 291.298C373.448 287.498 371.848 282.198 371.848 275.398C371.848 268.598 373.648 263.698 377.148 259.598C380.748 255.498 385.148 253.498 390.348 253.498C395.548 253.498 399.648 255.298 402.548 258.798C405.448 262.298 406.848 267.198 406.848 273.398V276.898H406.948ZM400.348 271.198C400.348 267.398 399.448 264.398 397.648 262.198C395.848 259.998 393.448 258.998 390.248 258.998C387.048 258.998 384.648 260.098 382.548 262.398C380.448 264.598 379.148 267.598 378.648 271.198H400.348Z" fill="black" style="fill:black;fill-opacity:1;"/>
<path d="M439.348 261.198C438.248 260.298 436.548 259.898 434.448 259.898C432.348 259.898 429.348 261.198 427.548 263.898C425.748 266.598 424.748 270.198 424.748 274.798V295.998H418.348V254.498H424.748V263.098H424.948C425.848 260.198 427.248 257.898 429.148 256.298C431.048 254.698 433.148 253.798 435.448 253.798C437.748 253.798 438.448 253.998 439.348 254.398V261.298V261.198Z" fill="black" style="fill:black;fill-opacity:1;"/>
<path d="M481.248 295.898H474.848V272.198C474.848 263.398 471.748 258.998 465.448 258.998C459.148 258.998 459.548 260.198 457.448 262.798C455.348 265.298 454.248 268.498 454.248 272.298V295.998H447.848V254.498H454.248V261.398H454.448C457.448 256.198 461.848 253.498 467.648 253.498C473.448 253.498 475.448 254.998 477.748 257.898C480.048 260.798 481.248 265.098 481.248 270.598V295.998V295.898Z" fill="black" style="fill:black;fill-opacity:1;"/>
<path d="M523.848 295.898H517.448V289.398H517.248C514.448 294.398 510.348 296.898 504.848 296.898C499.348 296.898 497.648 295.798 495.448 293.598C493.148 291.398 492.048 288.498 492.048 284.898C492.048 277.098 496.448 272.598 505.348 271.398L517.448 269.698C517.448 262.598 514.648 259.098 509.148 259.098C503.648 259.098 499.948 260.798 496.048 264.198V257.398C500.048 254.798 504.548 253.498 509.748 253.498C519.248 253.498 523.948 258.698 523.948 268.998V295.998L523.848 295.898ZM517.348 274.998L507.648 276.398C504.648 276.798 502.448 277.598 500.848 278.698C499.348 279.798 498.548 281.698 498.548 284.498C498.548 287.298 499.248 288.198 500.648 289.498C502.048 290.798 503.948 291.398 506.248 291.398C508.548 291.398 512.048 290.198 514.148 287.898C516.248 285.598 517.248 282.698 517.248 279.098V274.998H517.348Z" fill="black" style="fill:black;fill-opacity:1;"/>
<path d="M556.248 295.498C554.748 296.398 552.748 296.798 550.248 296.798C543.148 296.798 539.648 292.698 539.648 284.598V259.998H532.748V254.298H539.648V244.198L546.048 242.098V254.398H556.148V260.098H546.048V283.498C546.048 286.298 546.548 288.298 547.448 289.498C548.348 290.698 549.848 291.298 552.048 291.298C554.248 291.298 555.048 290.798 556.248 289.898V295.598V295.498Z" fill="black" style="fill:black;fill-opacity:1;"/>
<path d="M569.348 243.898C568.148 243.898 567.248 243.498 566.448 242.698C565.648 241.898 565.248 240.898 565.248 239.598C565.248 238.298 565.648 237.298 566.448 236.498C567.248 235.698 568.248 235.298 569.348 235.298C570.448 235.298 571.548 235.698 572.348 236.498C573.148 237.298 573.548 238.398 573.548 239.598C573.548 240.798 573.148 241.798 572.348 242.598C571.548 243.398 570.548 243.898 569.348 243.898ZM572.448 284.398C572.448 288.198 573.848 290.098 576.748 290.098C579.648 290.098 578.948 289.998 579.848 289.698V295.698C579.348 295.798 578.648 295.998 577.848 296.098C577.048 296.198 576.148 296.298 575.248 296.298C574.348 296.298 572.748 296.098 571.648 295.698C570.548 295.298 569.548 294.598 568.748 293.698C567.948 292.798 567.248 291.698 566.748 290.398C566.248 289.098 566.048 287.498 566.048 285.698V254.598H572.448V284.498V284.398Z" fill="black" style="fill:black;fill-opacity:1;"/>
<path d="M605.348 296.898C599.348 296.898 594.648 294.998 591.048 291.098C587.448 287.198 585.748 282.098 585.748 275.698C585.748 269.298 587.548 263.298 591.248 259.398C594.948 255.498 599.948 253.498 606.248 253.498C612.548 253.498 616.948 255.398 620.348 259.198C623.748 262.998 625.448 268.298 625.448 275.098C625.448 281.898 623.648 286.998 620.048 290.998C616.448 294.998 611.548 296.998 605.448 296.998L605.348 296.898ZM605.748 259.098C601.648 259.098 598.348 260.598 595.948 263.498C593.548 266.398 592.348 270.398 592.348 275.498C592.348 280.598 593.548 284.298 596.048 287.098C598.448 289.898 601.748 291.398 605.848 291.398C609.948 291.398 613.248 289.998 615.448 287.198C617.648 284.398 618.848 280.498 618.848 275.298C618.848 270.098 617.748 266.098 615.448 263.298C613.148 260.498 610.048 259.098 605.848 259.098H605.748Z" fill="black" style="fill:black;fill-opacity:1;"/>
<path d="M670.648 295.898H664.248V272.198C664.248 263.398 661.148 258.998 654.848 258.998C648.548 258.998 648.948 260.198 646.848 262.798C644.748 265.298 643.648 268.498 643.648 272.298V295.998H637.248V254.498H643.648V261.398H643.848C646.848 256.198 651.248 253.498 657.048 253.498C662.848 253.498 664.848 254.998 667.148 257.898C669.448 260.798 670.648 265.098 670.648 270.598V295.998V295.898Z" fill="black" style="fill:black;fill-opacity:1;"/>
<path d="M713.248 295.898H706.848V289.398H706.648C703.848 294.398 699.748 296.898 694.248 296.898C688.748 296.898 687.048 295.798 684.848 293.598C682.548 291.398 681.448 288.498 681.448 284.898C681.448 277.098 685.848 272.598 694.748 271.398L706.848 269.698C706.848 262.598 704.048 259.098 698.548 259.098C693.048 259.098 689.348 260.798 685.448 264.198V257.398C689.448 254.798 693.948 253.498 699.148 253.498C708.648 253.498 713.348 258.698 713.348 268.998V295.998L713.248 295.898ZM706.848 274.998L697.148 276.398C694.148 276.798 691.948 277.598 690.348 278.698C688.848 279.798 688.048 281.698 688.048 284.498C688.048 287.298 688.748 288.198 690.148 289.498C691.548 290.798 693.448 291.398 695.748 291.398C698.048 291.398 701.548 290.198 703.648 287.898C705.748 285.598 706.748 282.698 706.748 279.098V274.998H706.848Z" fill="black" style="fill:black;fill-opacity:1;"/>
<path d="M733.048 284.398C733.048 288.198 734.448 290.098 737.348 290.098C740.248 290.098 739.548 289.998 740.448 289.698V295.698C739.948 295.798 739.248 295.998 738.448 296.098C737.648 296.198 736.748 296.298 735.848 296.298C734.948 296.298 733.348 296.098 732.248 295.698C731.148 295.298 730.148 294.598 729.348 293.698C728.548 292.798 727.848 291.698 727.348 290.398C726.848 289.098 726.648 287.498 726.648 285.698V234.698H733.048V284.598V284.398Z" fill="black" style="fill:black;fill-opacity:1;"/>
<path d="M817.248 295.898H809.948L803.948 279.598H780.048L774.448 295.898H767.048L788.648 237.798H795.448L817.148 295.898H817.248ZM801.748 273.498L792.948 248.698C792.648 247.898 792.348 246.598 792.048 244.798H791.848C791.548 246.398 791.248 247.698 790.948 248.698L782.148 273.498H801.648H801.748Z" fill="black" style="fill:black;fill-opacity:1;"/>
<path d="M829.148 243.898C827.948 243.898 827.048 243.498 826.248 242.698C825.448 241.898 825.048 240.898 825.048 239.598C825.048 238.298 825.448 237.298 826.248 236.498C827.048 235.698 828.048 235.298 829.148 235.298C830.248 235.298 831.348 235.698 832.148 236.498C832.948 237.298 833.348 238.398 833.348 239.598C833.348 240.798 832.948 241.798 832.148 242.598C831.348 243.398 830.348 243.898 829.148 243.898ZM832.248 284.398C832.248 288.198 833.648 290.098 836.548 290.098C839.448 290.098 838.748 289.998 839.648 289.698V295.698C839.148 295.798 838.448 295.998 837.648 296.098C836.848 296.198 835.948 296.298 835.048 296.298C834.148 296.298 832.548 296.098 831.448 295.698C830.348 295.298 829.348 294.598 828.548 293.698C827.748 292.798 827.048 291.698 826.548 290.398C826.048 289.098 825.848 287.498 825.848 285.698V254.598H832.248V284.498V284.398Z" fill="black" style="fill:black;fill-opacity:1;"/>
<path d="M869.248 261.198C868.148 260.298 866.448 259.898 864.348 259.898C862.248 259.898 859.248 261.198 857.448 263.898C855.648 266.598 854.648 270.198 854.648 274.798V295.998H848.248V254.498H854.648V263.098H854.848C855.748 260.198 857.148 257.898 859.048 256.298C860.948 254.698 863.048 253.798 865.348 253.798C867.648 253.798 868.348 253.998 869.248 254.398V261.298V261.198Z" fill="black" style="fill:black;fill-opacity:1;"/>
<path d="M884.548 289.998H884.348V315.098H877.948V254.498H884.348V261.798H884.548C887.748 256.298 892.348 253.498 898.448 253.498C904.548 253.498 907.648 255.398 910.648 259.098C913.548 262.798 915.048 267.798 915.048 273.998C915.048 280.198 913.448 286.498 910.148 290.698C906.848 294.898 902.348 296.998 896.748 296.998C891.148 296.998 887.548 294.698 884.648 289.998H884.548ZM884.348 273.198V278.998C884.348 282.398 885.448 285.298 887.548 287.698C889.748 290.098 892.448 291.298 895.748 291.298C899.048 291.298 902.748 289.798 904.948 286.698C907.148 283.598 908.248 279.298 908.248 273.898C908.248 268.498 907.248 265.698 905.148 262.998C903.048 260.398 900.248 259.098 896.748 259.098C893.248 259.098 889.948 260.398 887.748 263.098C885.448 265.798 884.348 269.198 884.348 273.198Z" fill="black" style="fill:black;fill-opacity:1;"/>
<path d="M943.648 296.898C937.648 296.898 932.948 294.998 929.348 291.098C925.748 287.198 924.048 282.098 924.048 275.698C924.048 269.298 925.848 263.298 929.548 259.398C933.248 255.498 938.248 253.498 944.548 253.498C950.848 253.498 955.248 255.398 958.648 259.198C962.048 262.998 963.748 268.298 963.748 275.098C963.748 281.898 961.948 286.998 958.348 290.998C954.748 294.998 949.848 296.998 943.748 296.998L943.648 296.898ZM944.148 259.098C940.048 259.098 936.748 260.598 934.348 263.498C931.948 266.398 930.748 270.398 930.748 275.498C930.748 280.598 931.948 284.298 934.448 287.098C936.848 289.898 940.148 291.398 944.248 291.398C948.348 291.398 951.648 289.998 953.848 287.198C956.048 284.398 957.248 280.498 957.248 275.298C957.248 270.098 956.148 266.098 953.848 263.298C951.548 260.498 948.448 259.098 944.248 259.098H944.148Z" fill="black" style="fill:black;fill-opacity:1;"/>
<path d="M996.648 261.198C995.548 260.298 993.848 259.898 991.748 259.898C989.648 259.898 986.648 261.198 984.848 263.898C983.048 266.598 982.048 270.198 982.048 274.798V295.998H975.648V254.498H982.048V263.098H982.248C983.148 260.198 984.548 257.898 986.448 256.298C988.348 254.698 990.448 253.798 992.748 253.798C995.048 253.798 995.748 253.998 996.648 254.398V261.298V261.198Z" fill="black" style="fill:black;fill-opacity:1;"/>
<path d="M1026.25 295.498C1024.75 296.398 1022.75 296.798 1020.25 296.798C1013.15 296.798 1009.65 292.698 1009.65 284.598V259.998H1002.75V254.298H1009.65V244.198L1016.05 242.098V254.398H1026.15V260.098H1016.05V283.498C1016.05 286.298 1016.55 288.298 1017.45 289.498C1018.35 290.698 1019.85 291.298 1022.05 291.298C1024.25 291.298 1025.05 290.798 1026.25 289.898V295.598V295.498Z" fill="black" style="fill:black;fill-opacity:1;"/>
</svg>
